<mxfile host="app.diagrams.net" modified="2023-01-13T05:59:58.094Z" agent="5.0 (Windows NT 10.0; Win64; x64) AppleWebKit/537.36 (KHTML, like Gecko) Chrome/109.0.0.0 Safari/537.36" etag="rz2iXjWx1HBcMCH3fUxu" version="20.8.5" type="github">
  <diagram id="cbOGkC4sH-yH9b8XT-Cb" name="Page-1">
    <mxGraphModel dx="926" dy="467" grid="1" gridSize="10" guides="1" tooltips="1" connect="1" arrows="1" fold="1" page="1" pageScale="1" pageWidth="850" pageHeight="1100" math="0" shadow="0">
      <root>
        <mxCell id="0" />
        <mxCell id="1" parent="0" />
        <mxCell id="r4wglIQDCYTBaK72JKqi-2" value="Install Metamask" style="rounded=1;whiteSpace=wrap;html=1;absoluteArcSize=1;arcSize=14;strokeWidth=2;" parent="1" vertex="1">
          <mxGeometry x="160" y="280" width="80" height="80" as="geometry" />
        </mxCell>
        <mxCell id="r4wglIQDCYTBaK72JKqi-4" value="Start" style="strokeWidth=2;html=1;shape=mxgraph.flowchart.start_2;whiteSpace=wrap;" parent="1" vertex="1">
          <mxGeometry x="40" y="280" width="80" height="80" as="geometry" />
        </mxCell>
        <mxCell id="r4wglIQDCYTBaK72JKqi-6" value="Connect to Goerli Testnet Network" style="rounded=1;whiteSpace=wrap;html=1;absoluteArcSize=1;arcSize=14;strokeWidth=2;" parent="1" vertex="1">
          <mxGeometry x="280" y="280" width="80" height="80" as="geometry" />
        </mxCell>
        <mxCell id="r4wglIQDCYTBaK72JKqi-8" value="&lt;font style=&quot;font-size: 11px;&quot;&gt;Get some GoerliETH from Goerli Faucet at least 1 GoerliETH&lt;/font&gt;" style="rounded=1;whiteSpace=wrap;html=1;absoluteArcSize=1;arcSize=14;strokeWidth=2;" parent="1" vertex="1">
          <mxGeometry x="400" y="280" width="80" height="80" as="geometry" />
        </mxCell>
        <mxCell id="r4wglIQDCYTBaK72JKqi-10" value="&lt;font style=&quot;font-size: 10px;&quot;&gt;After we have 1 GoerliETH, we can connect our wallet to public zkEVM Testnet&lt;/font&gt;" style="rounded=1;whiteSpace=wrap;html=1;absoluteArcSize=1;arcSize=14;strokeWidth=2;" parent="1" vertex="1">
          <mxGeometry x="520" y="280" width="80" height="80" as="geometry" />
        </mxCell>
        <mxCell id="r4wglIQDCYTBaK72JKqi-12" value="&lt;font style=&quot;font-size: 12px;&quot;&gt;Swap GoerliETH to zkEVM-TestnetETH&lt;/font&gt;" style="rounded=1;whiteSpace=wrap;html=1;absoluteArcSize=1;arcSize=14;strokeWidth=2;" parent="1" vertex="1">
          <mxGeometry x="640" y="280" width="80" height="80" as="geometry" />
        </mxCell>
        <mxCell id="r4wglIQDCYTBaK72JKqi-14" value="&lt;font style=&quot;font-size: 12px;&quot;&gt;After we have zkEVM-TestnetETH, we can open Remix IDE&lt;/font&gt;" style="rounded=1;whiteSpace=wrap;html=1;absoluteArcSize=1;arcSize=14;strokeWidth=2;" parent="1" vertex="1">
          <mxGeometry x="760" y="280" width="80" height="80" as="geometry" />
        </mxCell>
        <mxCell id="r4wglIQDCYTBaK72JKqi-16" value="&lt;font style=&quot;font-size: 12px;&quot;&gt;Create Smart Contract&lt;/font&gt;" style="rounded=1;whiteSpace=wrap;html=1;absoluteArcSize=1;arcSize=14;strokeWidth=2;" parent="1" vertex="1">
          <mxGeometry x="760" y="400" width="80" height="80" as="geometry" />
        </mxCell>
        <mxCell id="S6zdZ06SihZJTvBlwjD1-1" value="&lt;font style=&quot;font-size: 12px;&quot;&gt;Deploy&lt;/font&gt;" style="rounded=1;whiteSpace=wrap;html=1;absoluteArcSize=1;arcSize=14;strokeWidth=2;" parent="1" vertex="1">
          <mxGeometry x="640" y="400" width="80" height="80" as="geometry" />
        </mxCell>
        <mxCell id="S6zdZ06SihZJTvBlwjD1-4" value="End" style="strokeWidth=2;html=1;shape=mxgraph.flowchart.start_2;whiteSpace=wrap;" parent="1" vertex="1">
          <mxGeometry x="400" y="400" width="80" height="80" as="geometry" />
        </mxCell>
      </root>
    </mxGraphModel>
  </diagram>
</mxfile>
